<svg xmlns="http://www.w3.org/2000/svg" width="1024" height="1024" version="1.0"><g fill="#fcfcfc"><path d="M495 945.6c-15.4-4.6-70.8-30.9-102.6-48.6-72.1-40.2-140.2-90.7-198.7-147.1l-13.9-13.4 1.6-15.5c5.8-54.9 14.1-106.9 25.2-158 2.4-11.2 4.3-20.9 4-21.5-.2-.6-4.9-4.2-10.4-7.9-21-14.1-29.6-28.4-29.6-49.1 0-10 1.5-15.6 7.2-27 8-16.1 17.4-26.1 36.3-38.5 13.6-8.9 26.9-15.9 40.4-21.5 5-2.1 9.6-4.2 10.3-4.8 1.4-1.1 1.5-.4-1.9-40.7-3.7-44.2-10.2-94.1-17.9-137-2.2-12.4-4-23.9-4-25.6 0-3.4 1.7-5.3 11.4-12.4 21.6-15.9 49.3-29 88.8-42.1C402.8 114.5 458.6 106 530 106c36 0 57 1.7 92 7.5 50.2 8.4 93.8 20.6 100 28 1.1 1.3 1.2 12.9.6 67.3-.7 66.5-.4 78 3 108.7 3.4 31 12 78.5 15.1 83.4 1.5 2.3 1.7 2.4 12.7 1.8 6.1-.3 19.3-1.9 29.4-3.6 23.2-3.9 40.9-4.3 49.7-1 11.2 4.2 18.5 13.8 18.5 24.5 0 12.4-4.2 21.8-14.9 32.8-17.4 17.9-39 32.6-62.6 42.6-5.5 2.3-10.3 4.5-10.7 4.9-.3.3.2 3.8 1.2 7.6 2.6 10.2 3.5 21.8 1.8 23.2-.7.6-8.9 1.3-19.3 1.6-9.9.4-21.6 1.3-26 2.2-15.7 3-45.1.4-70.4-6.4-41.3-11-60.7-11.8-78.3-3.1-3.4 1.7-7.5 4.3-9 5.7-5 4.7-7.7 16.1-3.8 15.6.8-.1 5.3-1.4 10-2.8 5.8-1.8 11.9-2.8 19.2-3.2l10.7-.6.6 3.9c1.4 9 2.9 12.6 7.1 17.3 2.4 2.7 5.9 5.6 7.8 6.5 4.3 2 15.7 2.1 19.5.2 3.6-1.9 9.3-8.3 11-12.4 1.3-3.1 1.5-3.2 7.5-3.2 3.4 0 7 .6 7.9 1.3.9.6 3 5.2 4.7 10.1 3.5 10.4 5.1 12.6 9.5 12.6 2.6 0 3.7-.7 5.8-3.9 1.4-2.1 3.2-6.1 4-8.7 1.3-4.6 1.7-4.9 5.3-5.6 2.1-.4 6.3-.7 9.1-.7 5.8-.1 5.4-.6 6.8 8.4 1.2 7.2 4.4 12.6 12.2 20.7 7.9 8.1 20.3 18.8 21.8 18.8.5 0 2.9-1 5.4-2.2 3.7-1.8 6.3-2.3 13.6-2.3 7.8 0 9.6.3 14 2.7 15.3 8.1 25.3 30.3 22.6 49.9l-1 7.3 4.5 6c14.4 19.1 22.4 40.3 24.3 64 1 11.9.7 14.1-1.8 13-4.4-1.8-11.5-3.6-19.6-4.9-12.4-2-49.6-2-65.1 0-12 1.6-48.5 10.4-62.9 15.2-7.3 2.5-9.3 2.7-23.5 2.7-10.7 0-18.4-.6-25-1.8-13.4-2.6-18.6-3-19.4-1.7-1.7 2.6 7.1 13.4 15 18.4 8.3 5.1 15.1 6.9 28.7 7.5 8.6.3 14.8 0 18.5-.8 14.4-3.2 25.9-6.3 34.3-9.1 11.6-3.9 28.4-7.4 45.5-9.4 16-2 63.3-1.7 69.7.4l3.7 1.2v5.8c0 18.4-9 45.4-21 63.1-4.5 6.7-17.5 19.2-25 24.1-11.2 7.4-23.6 12.6-35.8 15-8.2 1.6-31.1.7-41.2-1.7-15.1-3.4-37.6-14.3-54.5-26.3-10.1-7.2-28.9-25.3-37-35.6-13.3-17-19.9-29.3-24.9-46.5-11.9-41-3.1-80.7 25.2-113.5 3.9-4.7 7.2-8.6 7.2-8.8 0-.2-4.8-.7-10.7-1-25-1.4-48.6-11.1-68.6-28.1-19.2-16.5-30.6-37.8-30.7-57.4 0-13.5 4.7-30.2 12.6-44.8 3.4-6.3 6.5-10.1 14.2-17.5 19.1-18.3 38.9-25.9 67.4-25.9 12.7 0 35.9 6.5 73.9 20.6l7.6 2.8 7.4-2.2c15.1-4.4 30.4-5.3 51-3l10.7 1.2 9.3-4.2c11.5-5.3 27.3-14.6 37.4-22.2 10.5-7.9 21.3-17.7 23.6-21.4 2.6-4.2 2.5-9.8-.2-12.2-2-1.8-2.7-1.8-25.2-.1-39.9 3-68.1 2.1-105.2-3.4-3.8-.6-38-8-76-16.4-72.7-16.2-87-19.1-110.5-22.4-27-3.8-48.1-5.1-81.3-5.1-25.1 0-31.8-.3-31.5-1.2 1.1-3.4 48.1-16.7 83.3-23.7 51.9-10.3 93-13.7 156.5-12.8 30.7.4 34.7.6 48 3.1 8 1.4 16.2 2.9 18.4 3.2l3.8.7-.6-8.4c-.3-4.6-1.3-20.5-2.1-35.4-.8-14.8-1.7-29.2-2-32-.2-2.7-.5-28.4-.6-57-.1-28.6-.4-53-.6-54.1-1.8-8.7-71.2-23.9-129.2-28.4-36.1-2.7-95 .5-135.1 7.5-40.9 7.2-86.1 20-114 32.2-12.1 5.4-27.5 13.6-37.2 19.9L271 195v4.7c0 16 7.9 80.8 17 140.8 2.6 17.2 4.7 35.6 6.5 56.6.5 5.6.3 7.8-.7 8.6-.7.6-7.6 3.6-15.3 6.6-27.5 10.7-44.3 20.6-62.5 36.9-9 8.1-11 10.5-14.9 17.8-4 7.6-4.5 9.2-4.9 16.5-.3 7.2-.1 8.5 2.5 13.5 3.5 6.8 12.4 13.8 27.6 21.6 9.7 5 10.7 5.7 10.7 8.2 0 1.6-1.6 11.3-3.5 21.7-11 58.8-26.5 163.3-26.5 178.3 0 4.1.3 4.4 11.3 13.8 48.7 41.8 117.4 93 174.8 130.4 50.6 33.1 111.2 74 112.4 76 .9 1.5-2.3 1.1-10.5-1.4zm195-266.4c0-.4-2.3-3-5.1-5.7-8-8-15.7-18.6-17.9-25-2.7-7.7-2.7-20.4-.1-26 3.8-8.2 12.3-13.2 24.2-14.2 3.8-.3 7.2-1 7.5-1.5.3-.5-.2-1.8-1.3-3-1.6-1.9-2.7-2-12.3-1.6-8.7.4-11.4.9-16.1 3.1-13 6.2-18.2 15.3-18.3 31.7-.1 8.6.2 10.1 2.8 15.5 4.9 9.9 17 20.5 29.3 25.4 5.2 2.2 7.3 2.5 7.3 1.3zm76.6-17.4c4.3-4 8.5-9.1 9.5-11.3 3.4-7.3 2-15.2-3.6-20.7-2.3-2.3-3.6-2.8-7.9-2.8-9.5 0-12.6 4.4-12.6 17.7 0 12.4 3 24.3 6.1 24.3.5 0 4.3-3.3 8.5-7.2zm-34.8 5c.7-.7 1.2-3 1.2-5.1 0-6.2-5.3-15.1-14.3-24.1l-7.9-7.9-6.9.5c-8.5.6-10.9 2.4-10.9 8 0 5.8 2.1 9.7 8.2 15.5 6 5.6 15 10.6 23.1 12.8 6.6 1.7 6.1 1.7 7.5.3z"/><path d="M322 647.7c-21-8-38.2-25.5-48.6-49.7-14-32.3-10.7-76 7.3-96 10.1-11.2 21.1-15.9 39.3-16.7 12.2-.6 12.7-.5 18.5 2.2 15.5 7.3 26.5 26 22.5 38-1.4 4.2-8.4 12.5-10.6 12.5-.7 0-3.7-3.5-6.5-7.7-5.9-8.9-11.2-14.8-15.1-16.9-3.9-2.1-14.4-1.8-19.5.6-6 2.7-13.9 10.9-17.1 17.8-2.4 5-2.7 7-2.7 15.4 0 5.4.5 10.2 1 10.7.8.8 3-1.1 7.5-6 7.6-8.5 12-10.8 20.8-10.9 7.7 0 10.2 1.9 10.2 8.1 0 3.6-.7 4.8-5.9 10.2-8.5 8.9-10.4 13.2-10.9 24.5-.4 9.1-.3 9.5 3.1 16.5 5.8 11.8 16.7 22.1 29.2 27.8 2.6 1.2 3 2 3.3 5.9.5 6.2-1.3 11.4-4.9 14.4-4.3 3.6-10.1 3.4-20.9-.7zm413.6-67.6-6.8-6.9 3.8-9.2c2.2-5.2 4.8-9.6 5.9-10.3 1.1-.6 7.1-1.3 13.3-1.5l11.2-.5v3.5c0 4.1-2.5 12.8-5 17.9-2.9 5.5-10.9 13.9-13.4 13.9-1.3 0-4.7-2.6-9-6.9z"/></g><path fill="#C6A85B" d="M702.5 422.9c-3.3-.5-9.4-1.4-13.5-2-4.1-.6-38.5-8-76.5-16.4-72.6-16.2-87-19.1-110.5-22.4-27-3.8-48.1-5.1-81.3-5.1-25.1 0-31.8-.3-31.5-1.2 1.1-3.4 48.1-16.7 83.3-23.7 51.9-10.3 93-13.7 156.5-12.8 30.7.4 34.7.6 48 3.1 8 1.4 16.1 2.9 18.1 3.2l3.6.6 2.7 16.7c3.7 22.5 10.4 59 11.1 60.1.7 1.1-1.6 1.1-10-.1zm-9.2-248.4c0-3.8.2-5.3.4-3.2.2 2 .2 5.2 0 7-.2 1.7-.4.1-.4-3.8z"/></svg>