<svg xmlns="http://www.w3.org/2000/svg" width="114" height="25" fill="none"><path fill="#79E7BA" d="M18.29 9.093H1.835c-.297 0-.538.388-.538.867v4.116c0 .479.241.867.538.867H18.29c.297 0 .539-.388.539-.867V9.96c0-.479-.241-.867-.539-.867Zm-.113-6.552L1.909.081c-.294-.045-.59.303-.662.776L.63 4.927c-.071.474.109.894.403.938l16.268 2.46c.294.045.59-.302.662-.776l.615-4.07c.072-.473-.108-.893-.402-.938ZM1.032 18.178l16.268-2.46c.294-.045.59.302.662.776l.616 4.07c.072.473-.109.893-.403.938l-16.268 2.46c-.294.045-.59-.303-.662-.776l-.615-4.07c-.072-.474.108-.893.402-.938Z"/><path fill="#fff" d="M39.303 9.506h-3.15a4.004 4.004 0 0 0-.497-1.378 3.732 3.732 0 0 0-.9-1.024 3.81 3.81 0 0 0-1.225-.632 4.824 4.824 0 0 0-1.478-.217c-.936 0-1.766.233-2.493.703-.723.47-1.288 1.154-1.698 2.055-.411.9-.617 1.999-.617 3.294 0 1.32.21 2.43.62 3.33.411.902.98 1.581 1.7 2.035.722.459 1.548.688 2.48.688.518 0 1-.067 1.45-.206.455-.138.861-.34 1.22-.612.364-.269.668-.6.921-.992a3.86 3.86 0 0 0 .518-1.347l3.149.016a6.902 6.902 0 0 1-.763 2.307 6.863 6.863 0 0 1-1.529 1.9 6.996 6.996 0 0 1-2.204 1.28c-.842.305-1.778.459-2.805.459-1.513 0-2.868-.352-4.058-1.055-1.189-.7-2.125-1.715-2.808-3.038-.688-1.324-1.028-2.912-1.028-4.765 0-1.856.344-3.445 1.035-4.768.688-1.32 1.628-2.33 2.817-3.034 1.193-.703 2.537-1.051 4.042-1.051.96 0 1.853.134 2.678.403.826.269 1.56.664 2.205 1.181a6.493 6.493 0 0 1 1.596 1.904c.419.751.691 1.604.822 2.564Zm6.927 11.675c-1.264 0-2.358-.277-3.283-.834a5.627 5.627 0 0 1-2.149-2.33c-.51-1-.762-2.17-.762-3.505s.253-2.505.762-3.508c.506-1.004 1.225-1.786 2.15-2.34.924-.556 2.018-.833 3.282-.833 1.26 0 2.355.277 3.283.834.925.553 1.644 1.335 2.15 2.339.51 1.003.762 2.173.762 3.508s-.253 2.505-.762 3.504a5.625 5.625 0 0 1-2.15 2.331c-.928.557-2.022.834-3.283.834Zm.016-2.442c.684 0 1.256-.19 1.719-.569.458-.38.802-.889 1.03-1.529.226-.636.34-1.35.34-2.137 0-.79-.114-1.505-.34-2.15-.228-.643-.572-1.153-1.03-1.536-.463-.383-1.035-.573-1.719-.573-.7 0-1.284.19-1.746.573-.462.383-.81.893-1.035 1.537-.23.644-.34 1.359-.34 2.149 0 .786.11 1.501.34 2.137.225.64.573 1.15 1.035 1.53.462.378 1.047.568 1.746.568Zm7.307 2.189V7.998h3.05v12.93h-3.05Zm1.533-14.764a1.76 1.76 0 0 1-1.244-.486 1.53 1.53 0 0 1-.522-1.165c0-.458.174-.85.522-1.174a1.762 1.762 0 0 1 1.244-.485c.49 0 .905.161 1.249.485.347.324.521.716.521 1.174 0 .454-.174.845-.521 1.165a1.752 1.752 0 0 1-1.249.486Zm6.248 7.186v7.578h-3.05V7.998H61.2v2.196h.15a3.689 3.689 0 0 1 1.426-1.723c.656-.426 1.462-.64 2.43-.64.893 0 1.671.19 2.335.573.664.38 1.181.932 1.549 1.655.367.727.549 1.605.545 2.636v8.233h-3.05v-7.763c0-.861-.221-1.537-.668-2.027-.446-.49-1.063-.73-1.849-.73-.533 0-1.007.114-1.418.347-.41.233-.735.569-.968 1.007-.233.435-.348.968-.348 1.588Zm20.175-1.935-2.778.304a2.253 2.253 0 0 0-.406-.79 2.092 2.092 0 0 0-.783-.6c-.324-.151-.723-.226-1.193-.226-.636 0-1.165.138-1.596.41-.43.277-.64.633-.636 1.072-.004.375.134.679.419.916.28.237.75.43 1.41.58l2.205.475c1.225.26 2.133.68 2.73 1.252.596.573.9 1.32.904 2.248-.004.814-.24 1.529-.71 2.15-.467.62-1.119 1.105-1.948 1.453-.83.348-1.786.522-2.86.522-1.585 0-2.857-.332-3.825-1-.964-.664-1.54-1.592-1.726-2.781l2.975-.285c.134.585.418 1.024.857 1.32.438.3 1.007.446 1.706.446.727 0 1.308-.146 1.75-.446.44-.296.66-.664.66-1.102 0-.372-.142-.676-.426-.917-.285-.24-.723-.427-1.316-.557l-2.208-.462c-1.237-.257-2.157-.696-2.75-1.308-.596-.616-.889-1.394-.885-2.335-.004-.798.213-1.49.652-2.078.442-.584 1.055-1.039 1.845-1.363.786-.324 1.699-.482 2.73-.482 1.517 0 2.71.32 3.583.968.873.644 1.41 1.517 1.62 2.616Zm5.067 9.773c-.818 0-1.557-.146-2.209-.442a3.534 3.534 0 0 1-1.548-1.308c-.38-.576-.57-1.291-.57-2.137 0-.73.135-1.335.404-1.81a3.1 3.1 0 0 1 1.102-1.145 5.5 5.5 0 0 1 1.58-.652c.585-.15 1.193-.257 1.822-.324.758-.079 1.37-.15 1.844-.217.47-.063.814-.166 1.032-.3.213-.139.324-.356.324-.644v-.052c0-.636-.19-1.126-.565-1.473-.376-.348-.917-.522-1.624-.522-.747 0-1.34.162-1.774.486-.434.328-.727.711-.877 1.154l-2.848-.403c.225-.786.596-1.442 1.114-1.976a4.854 4.854 0 0 1 1.892-1.193c.747-.268 1.573-.399 2.477-.399.62 0 1.24.071 1.857.218.62.146 1.181.387 1.695.719.51.335.92.786 1.232 1.359.313.572.466 1.288.466 2.149v8.652h-2.927V19.15h-.103a3.76 3.76 0 0 1-.778 1.007c-.336.312-.75.561-1.256.751-.502.186-1.087.28-1.762.28Zm.79-2.24c.612 0 1.142-.122 1.592-.363.45-.245.794-.569 1.04-.972a2.52 2.52 0 0 0 .367-1.323v-1.525c-.095.079-.257.154-.486.221a6.386 6.386 0 0 1-.759.174c-.28.051-.56.099-.834.138-.276.04-.513.071-.715.099a5.209 5.209 0 0 0-1.22.304c-.36.138-.644.336-.854.585-.205.249-.308.569-.308.964 0 .56.202.983.613 1.272.41.284.932.427 1.564.427Zm14.209-10.95v2.358H93.93V7.997h7.645Zm-5.733 12.93V6.777c0-.87.182-1.593.542-2.17.363-.58.85-1.01 1.461-1.3a4.79 4.79 0 0 1 2.039-.426c.525 0 .996.04 1.406.127.407.083.712.158.909.225l-.608 2.358a6.754 6.754 0 0 0-.486-.122 3.06 3.06 0 0 0-.656-.063c-.569 0-.968.134-1.201.407-.233.272-.352.663-.352 1.165v13.95h-3.054Zm11.91.253c-1.296 0-2.414-.273-3.354-.814a5.423 5.423 0 0 1-2.169-2.307c-.502-.996-.755-2.17-.755-3.52 0-1.332.253-2.501.763-3.509.506-1.007 1.217-1.79 2.133-2.354.913-.565 1.987-.846 3.224-.846.794 0 1.549.127 2.26.384a5.153 5.153 0 0 1 1.884 1.18c.549.534.98 1.21 1.292 2.035.316.822.47 1.798.47 2.932v.936h-10.595v-2.054h7.676a3.276 3.276 0 0 0-.38-1.565 2.732 2.732 0 0 0-1.031-1.078c-.438-.265-.952-.4-1.536-.4-.621 0-1.17.15-1.64.451-.47.3-.838.695-1.098 1.181a3.363 3.363 0 0 0-.399 1.596v1.79c0 .755.134 1.399.411 1.932a2.89 2.89 0 0 0 1.153 1.229c.494.284 1.071.426 1.734.426.443 0 .846-.063 1.205-.19a2.63 2.63 0 0 0 .933-.56c.264-.245.462-.55.596-.917l2.849.32a4.485 4.485 0 0 1-1.024 1.968c-.505.556-1.145.987-1.923 1.295-.783.304-1.675.459-2.679.459Z"/></svg>