<svg xmlns="http://www.w3.org/2000/svg" width="443" height="136" fill="none"><path fill="#fff" d="M127.039 105.655V.648h40.803c18.151 0 31.952 13.801 31.952 31.502 0 17.401-13.801 31.352-31.952 31.352H142.79v42.153h-15.751Zm39.603-91.206H142.79v35.552h23.852c10.351 0 17.251-7.8 17.251-17.7 0-10.052-6.9-17.852-17.251-17.852Zm112.113 52.953c0 22.052-18.301 40.053-41.103 40.053-22.802 0-41.103-18-41.103-40.053 0-22.05 18.301-39.903 41.103-39.903 22.802 0 41.103 17.852 41.103 39.903Zm-15.151 0c0-14.7-11.551-26.402-25.952-26.402-14.401 0-25.952 11.701-25.952 26.402 0 14.851 11.551 26.552 25.952 26.552 14.401 0 25.952-11.7 25.952-26.552Zm100.717 38.253H349.32v-9.6c-6.901 7.05-16.502 11.4-27.152 11.4-22.652 0-40.353-17.85-40.353-39.903 0-22.2 17.851-40.053 40.353-40.053 10.5 0 20.101 4.201 27.002 11.251V.648h15.151v105.007ZM349.47 67.552c0-14.85-11.701-26.552-26.252-26.552-14.551 0-26.252 11.701-26.252 26.552 0 14.701 11.701 26.552 26.252 26.552 14.551 0 26.252-11.85 26.252-26.552Zm43.039 47.104 4.2-10.501-31.802-75.005h16.351l23.251 56.704 22.502-56.704h15.751l-36.602 90.456c-4.801 11.401-10.801 16.201-22.052 16.201h-10.051v-12.901h7.051c5.7 0 9-2.25 11.401-8.25ZM96.402 0h-75.11c-8.024 0-12.043 9.701-6.37 15.376l35.296 35.303c5.674 5.675 1.655 15.377-6.37 15.377H9.008A9.008 9.008 0 0 0 0 75.063v48.487c0 8.029 9.711 12.046 15.383 6.364l21.543-21.581a8.985 8.985 0 0 1 6.365-2.644h62.016c0-.689.48-59.844.097-96.804C105.352 3.951 101.336 0 96.402 0Z"/><path fill="#101010" d="M55.803 89.069a4.688 4.688 0 1 0 0-9.376 4.688 4.688 0 0 0 0 9.376Zm14.062 0a4.688 4.688 0 1 0 0-9.376 4.688 4.688 0 0 0 0 9.376Zm14.065 0a4.688 4.688 0 1 0 0-9.376 4.688 4.688 0 0 0 0 9.376Z"/></svg>